{
  "version": "1.1.6",
  "modules": [
    {
      "id": 1,
      "plugin": "Core",
      "version": "1.1.6",
      "model": "AudioInterface",
      "params": [],
      "leftModuleId": 149,
      "data": {
        "audio": {
          "driver": 1,
          "deviceName": "default",
          "offset": 0,
          "maxChannels": 8,
          "sampleRate": 44100,
          "blockSize": 2048
        }
      },
      "pos": [
        67,
        0
      ]
    },
    {
      "id": 105,
      "plugin": "ImpromptuModular",
      "version": "1.1.3",
      "model": "Clocked",
      "params": [
        {
          "id": 0,
          "value": 120.0
        },
        {
          "id": 1,
          "value": -0.0
        },
        {
          "id": 2,
          "value": 0.0
        },
        {
          "id": 3,
          "value": 0.0
        },
        {
          "id": 4,
          "value": 0.0
        },
        {
          "id": 5,
          "value": 0.0
        },
        {
          "id": 6,
          "value": 0.0
        },
        {
          "id": 7,
          "value": 0.0
        },
        {
          "id": 8,
          "value": 0.5
        },
        {
          "id": 9,
          "value": 0.5
        },
        {
          "id": 10,
          "value": 0.5
        },
        {
          "id": 11,
          "value": 0.5
        },
        {
          "id": 12,
          "value": 0.0
        },
        {
          "id": 13,
          "value": 0.0
        },
        {
          "id": 14,
          "value": 0.0
        },
        {
          "id": 15,
          "value": 5.0
        },
        {
          "id": 16,
          "value": 0.0
        },
        {
          "id": 17,
          "value": 0.0
        },
        {
          "id": 18,
          "value": 0.0
        },
        {
          "id": 19,
          "value": 0.0
        }
      ],
      "rightModuleId": 124,
      "data": {
        "panelTheme": 1,
        "running": false,
        "displayDelayNoteMode": true,
        "bpmDetectionMode": false,
        "restartOnStopStartRun": 0,
        "sendResetOnRestart": false,
        "ppqn": 4,
        "resetClockOutputsHigh": true,
        "momentaryRunInput": true
      },
      "pos": [
        0,
        0
      ]
    },
    {
      "id": 124,
      "plugin": "ReTunesFree",
      "version": "1.0.0",
      "model": "ReTunes-ForFour",
      "params": [
        {
          "id": 0,
          "value": 5.0
        },
        {
          "id": 1,
          "value": 5.0
        },
        {
          "id": 2,
          "value": 7.0
        },
        {
          "id": 3,
          "value": 12.0
        },
        {
          "id": 4,
          "value": 24.0
        }
      ],
      "leftModuleId": 105,
      "rightModuleId": 144,
      "pos": [
        20,
        0
      ]
    },
    {
      "id": 140,
      "plugin": "Valley",
      "version": "1.0.1",
      "model": "uGraph",
      "params": [
        {
          "id": 0,
          "value": 0.0
        },
        {
          "id": 1,
          "value": 0.0
        },
        {
          "id": 2,
          "value": 0.405999988
        },
        {
          "id": 3,
          "value": 0.0
        },
        {
          "id": 4,
          "value": 0.0
        },
        {
          "id": 5,
          "value": 0.0
        },
        {
          "id": 6,
          "value": 0.396499842
        },
        {
          "id": 7,
          "value": 0.339499891
        },
        {
          "id": 8,
          "value": 0.436999887
        },
        {
          "id": 9,
          "value": 0.0599999987
        }
      ],
      "leftModuleId": 145,
      "rightModuleId": 143,
      "data": {
        "sequencerMode": 1,
        "triggerOutputMode": 0,
        "accOutputMode": 0,
        "extClockResolution": 0,
        "chaosKnobMode": 0,
        "runMode": 0,
        "panelStyle": 0,
        "running": 0
      },
      "pos": [
        35,
        0
      ]
    },
    {
      "id": 142,
      "plugin": "Bogaudio",
      "version": "1.1.25",
      "model": "Bogaudio-Slew",
      "params": [
        {
          "id": 0,
          "value": 0.223606795
        },
        {
          "id": 1,
          "value": 0.294
        },
        {
          "id": 2,
          "value": 0.158113882
        },
        {
          "id": 3,
          "value": 1.0
        }
      ],
      "leftModuleId": 144,
      "rightModuleId": 145,
      "pos": [
        29,
        0
      ]
    },
    {
      "id": 143,
      "plugin": "EricaCopies",
      "version": "1.0.2",
      "model": "PicoDrums",
      "params": [
        {
          "id": 0,
          "value": 0.0
        },
        {
          "id": 1,
          "value": 0.0
        },
        {
          "id": 2,
          "value": 0.0
        }
      ],
      "leftModuleId": 140,
      "rightModuleId": 146,
      "data": {
        "mode": 0,
        "pitch_value1": 30.0,
        "pitch_value2": 10.0,
        "sample_value1": 10.0,
        "sample_value2": 10.0,
        "last_sample_value1": 0.0,
        "last_sample_value2": 0.0,
        "volume_value1": 1.25,
        "volume_value2": 1.25,
        "decay_value1": 0.100000001,
        "decay_value2": 0.100000001,
        "last_decay_value1": 0.0,
        "last_decay_value2": 0.0,
        "CVparam": 0
      },
      "pos": [
        45,
        0
      ]
    },
    {
      "id": 144,
      "plugin": "Bogaudio",
      "version": "1.1.25",
      "model": "Bogaudio-Slew",
      "params": [
        {
          "id": 0,
          "value": 0.223606795
        },
        {
          "id": 1,
          "value": 0.294
        },
        {
          "id": 2,
          "value": 0.158113882
        },
        {
          "id": 3,
          "value": 1.0
        }
      ],
      "leftModuleId": 124,
      "rightModuleId": 142,
      "pos": [
        26,
        0
      ]
    },
    {
      "id": 145,
      "plugin": "Bogaudio",
      "version": "1.1.25",
      "model": "Bogaudio-Slew",
      "params": [
        {
          "id": 0,
          "value": 0.0909999907
        },
        {
          "id": 1,
          "value": -0.363000125
        },
        {
          "id": 2,
          "value": 0.223606795
        },
        {
          "id": 3,
          "value": -0.245000288
        }
      ],
      "leftModuleId": 142,
      "rightModuleId": 140,
      "pos": [
        32,
        0
      ]
    },
    {
      "id": 146,
      "plugin": "DrumKit",
      "version": "1.1.2",
      "model": "OpenHiHat",
      "params": [
        {
          "id": 0,
          "value": 4.0
        },
        {
          "id": 1,
          "value": 7.0
        },
        {
          "id": 2,
          "value": 0.0
        },
        {
          "id": 3,
          "value": 0.0
        },
        {
          "id": 4,
          "value": 0.0
        },
        {
          "id": 5,
          "value": 0.0
        },
        {
          "id": 6,
          "value": 0.0
        },
        {
          "id": 7,
          "value": 0.0
        },
        {
          "id": 8,
          "value": 0.0
        },
        {
          "id": 9,
          "value": 0.0
        },
        {
          "id": 10,
          "value": 0.0
        },
        {
          "id": 11,
          "value": 0.0
        },
        {
          "id": 12,
          "value": 0.0
        },
        {
          "id": 13,
          "value": 0.0
        },
        {
          "id": 14,
          "value": 0.0
        },
        {
          "id": 15,
          "value": 0.0
        },
        {
          "id": 16,
          "value": 1.0
        },
        {
          "id": 17,
          "value": 1.0
        },
        {
          "id": 18,
          "value": 0.0
        },
        {
          "id": 19,
          "value": 0.0
        },
        {
          "id": 20,
          "value": 0.0
        },
        {
          "id": 21,
          "value": 0.0
        },
        {
          "id": 22,
          "value": 0.0
        },
        {
          "id": 23,
          "value": 0.0
        },
        {
          "id": 24,
          "value": 0.0
        },
        {
          "id": 25,
          "value": 0.0
        },
        {
          "id": 26,
          "value": 0.0
        },
        {
          "id": 27,
          "value": 0.0
        },
        {
          "id": 28,
          "value": 0.0
        },
        {
          "id": 29,
          "value": 0.0
        },
        {
          "id": 30,
          "value": 0.0
        },
        {
          "id": 31,
          "value": 0.0
        },
        {
          "id": 32,
          "value": 0.254999995
        },
        {
          "id": 33,
          "value": 0.254999995
        },
        {
          "id": 34,
          "value": 0.0
        },
        {
          "id": 35,
          "value": 0.0
        },
        {
          "id": 36,
          "value": 0.0
        },
        {
          "id": 37,
          "value": 0.0
        },
        {
          "id": 38,
          "value": 0.0
        },
        {
          "id": 39,
          "value": 0.0
        },
        {
          "id": 40,
          "value": 0.0
        },
        {
          "id": 41,
          "value": 0.0
        },
        {
          "id": 42,
          "value": 0.0
        },
        {
          "id": 43,
          "value": 0.0
        },
        {
          "id": 44,
          "value": 0.0
        },
        {
          "id": 45,
          "value": 0.0
        },
        {
          "id": 46,
          "value": 0.0
        },
        {
          "id": 47,
          "value": 0.0
        },
        {
          "id": 48,
          "value": 0.0
        },
        {
          "id": 49,
          "value": 0.0
        }
      ],
      "leftModuleId": 143,
      "rightModuleId": 149,
      "pos": [
        48,
        0
      ]
    },
    {
      "id": 149,
      "plugin": "Fundamental",
      "version": "1.4.0",
      "model": "VCMixer",
      "params": [
        {
          "id": 0,
          "value": 0.510999978
        },
        {
          "id": 1,
          "value": 1.0
        },
        {
          "id": 2,
          "value": 0.944845676
        },
        {
          "id": 3,
          "value": 1.0
        },
        {
          "id": 4,
          "value": 1.0
        }
      ],
      "leftModuleId": 146,
      "rightModuleId": 1,
      "pos": [
        57,
        0
      ]
    }
  ],
  "cables": [
    {
      "id": 456,
      "outputModuleId": 105,
      "outputId": 0,
      "inputModuleId": 124,
      "inputId": 0,
      "color": "#c91847"
    },
    {
      "id": 471,
      "outputModuleId": 105,
      "outputId": 4,
      "inputModuleId": 124,
      "inputId": 1,
      "color": "#0986ad"
    },
    {
      "id": 513,
      "outputModuleId": 105,
      "outputId": 0,
      "inputModuleId": 140,
      "inputId": 0,
      "color": "#0c8e15"
    },
    {
      "id": 514,
      "outputModuleId": 105,
      "outputId": 5,
      "inputModuleId": 140,
      "inputId": 9,
      "color": "#c91847"
    },
    {
      "id": 515,
      "outputModuleId": 105,
      "outputId": 4,
      "inputModuleId": 140,
      "inputId": 1,
      "color": "#0986ad"
    },
    {
      "id": 518,
      "outputModuleId": 142,
      "outputId": 0,
      "inputModuleId": 140,
      "inputId": 3,
      "color": "#0986ad"
    },
    {
      "id": 519,
      "outputModuleId": 140,
      "outputId": 0,
      "inputModuleId": 143,
      "inputId": 1,
      "color": "#c9b70e"
    },
    {
      "id": 520,
      "outputModuleId": 140,
      "outputId": 1,
      "inputModuleId": 143,
      "inputId": 2,
      "color": "#0c8e15"
    },
    {
      "id": 523,
      "outputModuleId": 144,
      "outputId": 0,
      "inputModuleId": 140,
      "inputId": 2,
      "color": "#c9b70e"
    },
    {
      "id": 525,
      "outputModuleId": 145,
      "outputId": 0,
      "inputModuleId": 140,
      "inputId": 4,
      "color": "#c91847"
    },
    {
      "id": 527,
      "outputModuleId": 140,
      "outputId": 2,
      "inputModuleId": 146,
      "inputId": 16,
      "color": "#c9b70e"
    },
    {
      "id": 528,
      "outputModuleId": 140,
      "outputId": 5,
      "inputModuleId": 146,
      "inputId": 64,
      "color": "#0c8e15"
    },
    {
      "id": 531,
      "outputModuleId": 143,
      "outputId": 0,
      "inputModuleId": 149,
      "inputId": 1,
      "color": "#c9b70e"
    },
    {
      "id": 532,
      "outputModuleId": 149,
      "outputId": 0,
      "inputModuleId": 1,
      "inputId": 0,
      "color": "#0c8e15"
    },
    {
      "id": 533,
      "outputModuleId": 149,
      "outputId": 0,
      "inputModuleId": 1,
      "inputId": 1,
      "color": "#c91847"
    },
    {
      "id": 534,
      "outputModuleId": 146,
      "outputId": 0,
      "inputModuleId": 149,
      "inputId": 2,
      "color": "#0986ad"
    },
    {
      "id": 524,
      "outputModuleId": 124,
      "outputId": 2,
      "inputModuleId": 145,
      "inputId": 2,
      "color": "#0c8e15"
    },
    {
      "id": 539,
      "outputModuleId": 124,
      "outputId": 3,
      "inputModuleId": 146,
      "inputId": 0,
      "color": "#c9b70e"
    },
    {
      "id": 537,
      "outputModuleId": 124,
      "outputId": 4,
      "inputModuleId": 143,
      "inputId": 0,
      "color": "#c91847"
    },
    {
      "id": 516,
      "outputModuleId": 124,
      "outputId": 4,
      "inputModuleId": 142,
      "inputId": 2,
      "color": "#c9b70e"
    },
    {
      "id": 522,
      "outputModuleId": 124,
      "outputId": 5,
      "inputModuleId": 144,
      "inputId": 2,
      "color": "#0986ad"
    }
  ]
}